<svg xmlns="http://www.w3.org/2000/svg" xmlns:xlink="http://www.w3.org/1999/xlink" style="enable-background:new 0 0 4000 4000" xml:space="preserve" viewBox="0 0 4000 4000"><path style="fill:#fff" d="M0 0h4000v4000H0z"/><defs><path id="a" d="m2231.487 1929.11-229.207 55.746c82.079 76.768 253.639 44.906 360.565-2.739-7.139-26.856-11.979-54.051-14.847-81.342z"/></defs><clipPath id="b"><use xlink:href="#a" style="overflow:visible"/></clipPath><linearGradient id="c" gradientUnits="userSpaceOnUse" x1="2209.291" y1="2024.105" x2="2080.357" y2="1817.137"><stop offset="0" style="stop-color:#008a80"/><stop offset="1" style="stop-color:#ebf855"/></linearGradient><path style="clip-path:url(#b);fill:url(#c)" d="M2002.28 1900.775h360.565v160.849H2002.28z"/><defs><filter id="d" filterUnits="userSpaceOnUse" x="2002.28" y="1900.775" width="349.192" height="89.685"><feColorMatrix values="1 0 0 0 0 0 1 0 0 0 0 0 1 0 0 0 0 0 1 0"/></filter></defs><mask maskUnits="userSpaceOnUse" x="2002.28" y="1900.775" width="349.192" height="89.685" id="f"><g style="filter:url(#d)"><linearGradient id="e" gradientUnits="userSpaceOnUse" x1="909.129" y1="4620.676" x2="-89.803" y2="4268.249" gradientTransform="translate(1567.243 -2569.394)"><stop offset="0" style="stop-color:#fff"/><stop offset="1" style="stop-color:#000"/></linearGradient><path style="fill:url(#e)" d="M2002.28 1900.775h349.192v89.687H2002.28z"/></g></mask><path style="mask:url(#f);fill-rule:evenodd;clip-rule:evenodd;fill:#005b50" d="m2231.487 1929.11-229.207 55.746s195.44 32.073 349.192-57.253a562 562 0 0 1-3.474-26.828z"/><defs><path id="g" d="m2153.642 1844.946-288.641 22.007c95.233 123.641 356.843 101.581 487.67 52.387-5.165-29.478-7.972-59.218-8.776-88.9z"/></defs><clipPath id="h"><use xlink:href="#g" style="overflow:visible"/></clipPath><linearGradient id="i" gradientUnits="userSpaceOnUse" x1="2104.913" y1="1911.548" x2="1730.148" y2="2010.086"><stop offset="0" style="stop-color:#008a80"/><stop offset="1" style="stop-color:#ebf855"/></linearGradient><path style="clip-path:url(#h);fill:url(#i)" d="M1865.001 1830.44h487.67v160.154h-487.67z"/><defs><path id="j" d="m2063.365 1715.134-366.115-40.774c99.305 195.821 495.023 217.106 647.152 169.149-1.522-32.449-.636-64.869 2.15-96.84z"/></defs><clipPath id="k"><use xlink:href="#j" style="overflow:visible"/></clipPath><linearGradient id="l" gradientUnits="userSpaceOnUse" x1="1949.057" y1="1780.947" x2="1578.679" y2="1770.95"><stop offset="0" style="stop-color:#008a80"/><stop offset="1" style="stop-color:#ebf855"/></linearGradient><path style="clip-path:url(#k);fill:url(#l)" d="M1697.25 1674.36h649.302v217.106H1697.25z"/><defs><path id="m" d="m2027.933 1558.932-400.594-133.799c68.528 259.808 563.433 377.948 717.823 339.977 1.626-25.581 4.495-50.928 8.368-75.819l-7.103-23.982z"/></defs><clipPath id="n"><use xlink:href="#m" style="overflow:visible"/></clipPath><linearGradient id="o" gradientUnits="userSpaceOnUse" x1="2042.337" y1="1624.618" x2="1484.269" y2="1511.596"><stop offset="0" style="stop-color:#008a80"/><stop offset="1" style="stop-color:#ebf855"/></linearGradient><path style="clip-path:url(#n);fill:url(#o)" d="M1627.339 1425.133h726.191v377.948h-726.191z"/><defs><path id="p" d="m2075.977 1415.889-361.815-217.868c10.579 276.566 495.425 504.998 639.984 487.276 3.327-20.792 7.358-41.228 11.88-61.228l-2.386-34.964z"/></defs><clipPath id="q"><use xlink:href="#p" style="overflow:visible"/></clipPath><linearGradient id="r" gradientUnits="userSpaceOnUse" x1="2155.258" y1="1580.74" x2="1741.732" y2="1113.149"><stop offset="0" style="stop-color:#008a80"/><stop offset="1" style="stop-color:#ebf855"/></linearGradient><path style="clip-path:url(#q);fill:url(#r)" d="M1714.162 1198.021h651.865v504.998h-651.865z"/><defs><path id="s" d="m2160.128 1318.551-294.725-265.997c-39.821 256.583 364.863 553.759 502.214 564.467 7.226-30.955 15.664-60.74 24.693-88.923z"/></defs><clipPath id="t"><use xlink:href="#s" style="overflow:visible"/></clipPath><linearGradient id="u" gradientUnits="userSpaceOnUse" x1="2305.807" y1="1572.692" x2="1837.095" y2="1006.26"><stop offset="0" style="stop-color:#008a80"/><stop offset="1" style="stop-color:#ebf855"/></linearGradient><path style="clip-path:url(#t);fill:url(#u)" d="M1825.582 1052.554h566.727v564.467h-566.727z"/><defs><path id="v" d="m2266.083 1256.474-213.979-281.292c-74.612 210.768 208.337 523.322 334.085 572.536 9.898-32.786 20.737-63.594 31.648-91.759z"/></defs><clipPath id="w"><use xlink:href="#v" style="overflow:visible"/></clipPath><linearGradient id="x" gradientUnits="userSpaceOnUse" x1="2283.711" y1="1528.14" x2="2112.24" y2="996.694"><stop offset="0" style="stop-color:#008a80"/><stop offset="1" style="stop-color:#ebf855"/></linearGradient><path style="clip-path:url(#w);fill:url(#x)" d="M1977.491 975.182h440.346v572.536h-440.346z"/><defs><path id="y" d="M2401.493 1923.77c-27.088-115.273-30.629-265.396 34.719-443.656l-226.836-298.187s20.997 189.269 103.245 319.781c0 0-108.812 230.078-53.333 462.39 23.046 96.501 74.439 193.385 173.752 274.324 33.108-12.621 65.43-30.041 96.609-53.552 0 .001-88.857-93.873-128.156-261.1"/></defs><clipPath id="z"><use xlink:href="#y" style="overflow:visible"/></clipPath><linearGradient id="A" gradientUnits="userSpaceOnUse" x1="2326.974" y1="2014.11" x2="2396.541" y2="1482.256"><stop offset="0" style="stop-color:#00478f"/><stop offset="1" style="stop-color:#47eadf"/></linearGradient><path style="clip-path:url(#z);fill:url(#A)" d="M2203.809 1181.928h325.84v1056.495h-325.84z"/><defs><filter id="B" filterUnits="userSpaceOnUse" x="2209.376" y="1181.928" width="320.272" height="1019.399"><feColorMatrix values="1 0 0 0 0 0 1 0 0 0 0 0 1 0 0 0 0 0 1 0"/></filter></defs><mask maskUnits="userSpaceOnUse" x="2209.376" y="1181.928" width="320.272" height="1019.399" id="D"><g style="filter:url(#B)"><linearGradient id="C" gradientUnits="userSpaceOnUse" x1="711.168" y1="3686.067" x2="829.799" y2="4614.82" gradientTransform="translate(1587.546 -2548.722)"><stop offset="0" style="stop-color:#fff"/><stop offset="1" style="stop-color:#000"/></linearGradient><path style="fill:url(#C)" d="M2209.376 1181.928h320.274v1019.399h-320.274z"/></g></mask><path style="mask:url(#D);fill-rule:evenodd;clip-rule:evenodd;fill:#5ef9f6" d="M2401.493 1923.77c-27.088-115.273-30.629-265.396 34.719-443.656l-226.836-298.187s109.635 165.317 191.884 295.826c0 0-108.813 230.081-53.335 462.393 21.811 91.331 69.023 183.003 158.213 261.18a402 402 0 0 0 23.51-16.456c.001.001-88.856-93.873-128.155-261.1"/><defs><filter id="E" filterUnits="userSpaceOnUse" x="1865.403" y="1052.554" width="446.822" height="467.934"><feColorMatrix values="1 0 0 0 0 0 1 0 0 0 0 0 1 0 0 0 0 0 1 0"/></filter></defs><mask maskUnits="userSpaceOnUse" x="1865.403" y="1052.554" width="446.822" height="467.934" id="G"><g style="filter:url(#E)"><linearGradient id="F" gradientUnits="userSpaceOnUse" x1="914.591" y1="4036.037" x2="120.789" y2="3755.727" gradientTransform="translate(1553.824 -2615.468)"><stop offset="0" style="stop-color:#fff"/><stop offset="1" style="stop-color:#000"/></linearGradient><path style="fill:url(#F)" d="M1865.403 1052.557h446.822v467.931h-446.822z"/></g></mask><path style="mask:url(#G);fill-rule:evenodd;clip-rule:evenodd;fill:#005b50" d="M1865.403 1052.554s130.857 312.036 439.148 467.934c3.904-9.613 6.683-15.766 7.674-17.921-65.099-50.489-141.393-132.853-196.66-224.239z"/><defs><filter id="H" filterUnits="userSpaceOnUse" x="1714.162" y="1198.021" width="566.13" height="431.209"><feColorMatrix values="1 0 0 0 0 0 1 0 0 0 0 0 1 0 0 0 0 0 1 0"/></filter></defs><mask maskUnits="userSpaceOnUse" x="1714.162" y="1198.021" width="566.13" height="431.209" id="J"><g style="filter:url(#H)"><linearGradient id="I" gradientUnits="userSpaceOnUse" x1="1084.431" y1="4239.358" x2="85.499" y2="3886.932" gradientTransform="translate(1538.997 -2604.808)"><stop offset="0" style="stop-color:#fff"/><stop offset="1" style="stop-color:#000"/></linearGradient><path style="fill:url(#I)" d="M1714.162 1198.018h566.13v431.211h-566.13z"/></g></mask><path style="mask:url(#J);fill-rule:evenodd;clip-rule:evenodd;fill:#005b50" d="M2280.291 1589.466c-88.185-41.36-203.545-125.038-290.671-225.578l-275.458-165.867s274.791 322.453 555.035 431.209a898 898 0 0 1 11.094-39.764"/><defs><filter id="K" filterUnits="userSpaceOnUse" x="1627.339" y="1425.133" width="631.504" height="282.781"><feColorMatrix values="1 0 0 0 0 0 1 0 0 0 0 0 1 0 0 0 0 0 1 0"/></filter></defs><mask maskUnits="userSpaceOnUse" x="1627.339" y="1425.133" width="631.504" height="282.781" id="M"><g style="filter:url(#K)"><linearGradient id="L" gradientUnits="userSpaceOnUse" x1="1038.977" y1="4384.602" x2="40.047" y2="4032.177" gradientTransform="translate(1530.486 -2597.094)"><stop offset="0" style="stop-color:#fff"/><stop offset="1" style="stop-color:#000"/></linearGradient><path style="fill:url(#L)" d="M1627.339 1425.13h631.503v282.784h-631.503z"/></g></mask><path style="mask:url(#M);fill-rule:evenodd;clip-rule:evenodd;fill:#005b50" d="M1627.339 1425.133s307.124 232.957 625.634 282.781a848 848 0 0 1 5.87-32.967c-85.438-21.093-198.274-70.549-299.095-138.787z"/><defs><filter id="N" filterUnits="userSpaceOnUse" x="1697.25" y="1674.36" width="548.319" height="123.471"><feColorMatrix values="1 0 0 0 0 0 1 0 0 0 0 0 1 0 0 0 0 0 1 0"/></filter></defs><mask maskUnits="userSpaceOnUse" x="1697.25" y="1674.36" width="548.319" height="123.471" id="P"><g style="filter:url(#N)"><linearGradient id="O" gradientUnits="userSpaceOnUse" x1="982.005" y1="4517.651" x2="-16.827" y2="4165.327" gradientTransform="translate(1537.34 -2588.28)"><stop offset="0" style="stop-color:#fff"/><stop offset="1" style="stop-color:#000"/></linearGradient><path style="fill:url(#O)" d="M1697.25 1674.36h548.317v123.471H1697.25z"/></g></mask><path style="mask:url(#P);fill-rule:evenodd;clip-rule:evenodd;fill:#005b50" d="M1697.25 1674.36s203.678 147.15 546.939 120.167c.339-7.827.801-15.58 1.38-23.242-86.299-4.455-199.26-27.957-305.444-69.874z"/><defs><filter id="Q" filterUnits="userSpaceOnUse" x="1865.001" y="1854.628" width="382.473" height="48.334"><feColorMatrix values="1 0 0 0 0 0 1 0 0 0 0 0 1 0 0 0 0 0 1 0"/></filter></defs><mask maskUnits="userSpaceOnUse" x="1865.001" y="1854.628" width="382.473" height="48.334" id="S"><g style="filter:url(#Q)"><linearGradient id="R" gradientUnits="userSpaceOnUse" x1="930.222" y1="4607.688" x2="-68.708" y2="4255.262" gradientTransform="translate(1553.785 -2577.972)"><stop offset="0" style="stop-color:#fff"/><stop offset="1" style="stop-color:#000"/></linearGradient><path style="fill:url(#R)" d="M1865.001 1854.631h382.473v48.333h-382.473z"/></g></mask><path style="mask:url(#S);fill-rule:evenodd;clip-rule:evenodd;fill:#005b50" d="M1865.001 1866.953s192.769 54.648 382.473 29.301a617 617 0 0 1-2.91-34.449c-64.464 5.94-141.574 4.418-217.935-7.177z"/><defs><path id="T" d="M1876.336 2884.281c175.758-15.859 305.313-331.54 289.829-423.885a756 756 0 0 1-42.27-.588z"/></defs><clipPath id="U"><use xlink:href="#T" style="overflow:visible"/></clipPath><linearGradient id="V" gradientUnits="userSpaceOnUse" x1="1843.133" y1="2888.104" x2="2009.502" y2="2694.701"><stop offset="0" style="stop-color:#ffce4b"/><stop offset="1" style="stop-color:#f856bf"/></linearGradient><path style="clip-path:url(#U);fill:url(#V)" d="M1876.336 2459.808h305.313v424.472h-305.313z"/><defs><path id="W" d="m2039.131 2695.915-68.857 298.573c188-69.389 236.643-453.826 192.343-550.487a847 847 0 0 1-34.834 9.142l-54.029 92.636z"/></defs><clipPath id="X"><use xlink:href="#W" style="overflow:visible"/></clipPath><linearGradient id="Y" gradientUnits="userSpaceOnUse" x1="1950.233" y1="2912.008" x2="2102.526" y2="2699.837"><stop offset="0" style="stop-color:#ffce4b"/><stop offset="1" style="stop-color:#f856bf"/></linearGradient><path style="clip-path:url(#X);fill:url(#Y)" d="M1970.274 2444.002h236.643v550.487h-236.643z"/><defs><path id="Z" d="m2095.202 2709.891 6.845 315.109c169.905-116.723 121.193-512.332 52.581-597.507a863 863 0 0 1-17.734 10.026l-45.896 78.695z"/></defs><clipPath id="aa"><use xlink:href="#Z" style="overflow:visible"/></clipPath><linearGradient id="ab" gradientUnits="userSpaceOnUse" x1="2050.537" y1="2868.358" x2="2188.039" y2="2719.124"><stop offset="0" style="stop-color:#ffce4b"/><stop offset="1" style="stop-color:#f856bf"/></linearGradient><path style="clip-path:url(#aa);fill:url(#ab)" d="M2090.999 2427.493h180.954V3025h-180.954z"/><defs><path id="ac" d="m2159.698 2684.49 73.183 286.607c130.529-142.794 1.975-494.095-78.84-557.387a779 779 0 0 1-7.119 6.617l-38.028 65.202z"/></defs><clipPath id="ad"><use xlink:href="#ac" style="overflow:visible"/></clipPath><linearGradient id="ae" gradientUnits="userSpaceOnUse" x1="2180.389" y1="2825.363" x2="2244.346" y2="2672.864"><stop offset="0" style="stop-color:#ffce4b"/><stop offset="1" style="stop-color:#f856bf"/></linearGradient><path style="clip-path:url(#ad);fill:url(#ae)" d="M2108.894 2413.709h254.515v557.387h-254.515z"/><defs><path id="af" d="m2190.867 2626.303 112.748 223.501c81.828-141.805-88.48-408.678-166.805-446.243l-1.378 2.012c7.015 8.475 11.49 14.753 11.49 14.753l-32.153 55.129z"/></defs><clipPath id="ag"><use xlink:href="#af" style="overflow:visible"/></clipPath><linearGradient id="ah" gradientUnits="userSpaceOnUse" x1="2267.065" y1="2741.63" x2="2240.849" y2="2563.939"><stop offset="0" style="stop-color:#ffce4b"/><stop offset="1" style="stop-color:#f856bf"/></linearGradient><path style="clip-path:url(#ag);fill:url(#ah)" d="M2114.769 2403.561h270.673v446.243h-270.673z"/><defs><path id="ai" d="m1834.941 2016.394-397.692 279.238c269.138 106.995 679.099-217.355 787.7-397.577-29.822-30.763-57.244-63.601-82.398-97.654z"/></defs><clipPath id="aj"><use xlink:href="#ai" style="overflow:visible"/></clipPath><linearGradient id="ak" gradientUnits="userSpaceOnUse" x1="1761.385" y1="2159.776" x2="1386.314" y2="2473.236"><stop offset="0" style="stop-color:#008a80"/><stop offset="1" style="stop-color:#ebf855"/></linearGradient><path style="clip-path:url(#aj);fill:url(#ak)" d="M1437.249 1800.401h787.7v602.226h-787.7z"/><defs><path id="al" d="m1586.22 1709.419-548.02 100.329c251.864 264.301 930.788 67.03 1058.289-76.675-14.853-23.464-28.703-47.195-41.688-70.928l-32.875-32.494z"/></defs><clipPath id="am"><use xlink:href="#al" style="overflow:visible"/></clipPath><linearGradient id="an" gradientUnits="userSpaceOnUse" x1="1798.9" y1="1880.613" x2="981.842" y2="1779.118"><stop offset="0" style="stop-color:#008a80"/><stop offset="1" style="stop-color:#ebf855"/></linearGradient><path style="clip-path:url(#am);fill:url(#an)" d="M1038.2 1629.65h1058.288v444.398H1038.2z"/><defs><path id="ao" d="m1584.488 1539.697-523.672-5.832c184.575 288.532 844.214 229.219 989.407 119.928-19.873-36.927-37.528-73.749-53.195-109.503z"/></defs><clipPath id="ap"><use xlink:href="#ao" style="overflow:visible"/></clipPath><linearGradient id="aq" gradientUnits="userSpaceOnUse" x1="1938.634" y1="1738.543" x2="980.606" y2="1587.473"><stop offset="0" style="stop-color:#008a80"/><stop offset="1" style="stop-color:#ebf855"/></linearGradient><path style="clip-path:url(#ap);fill:url(#aq)" d="M1060.816 1533.864h989.407v288.532h-989.407z"/><defs><path id="ar" d="M2706.127 2073.986s153.465-16.152 253.619 92.078c0 0-14.541-93.692-53.31-121.156 66.833-174.003-135.926-315.196-320.205-284.799-294.45 48.577-535.832 707.548-514.968 950.344 197.888-183.114 564.879-294.047 634.864-636.467"/></defs><clipPath id="as"><use xlink:href="#ar" style="overflow:visible"/></clipPath><linearGradient id="at" gradientUnits="userSpaceOnUse" x1="2499.383" y1="2560.524" x2="2528.454" y2="1765.705"><stop offset="0" style="stop-color:#003780"/><stop offset="1" style="stop-color:#d820d2"/></linearGradient><path style="clip-path:url(#as);fill:url(#at)" d="M2050.4 1729.713h922.871v980.742H2050.4z"/><path style="fill-rule:evenodd;clip-rule:evenodd;fill:#003780" d="M2112.205 2426.218c86.165-181.128 327.924-213.114 458.63-216.643-102.667-8.293-191.442-38.653-267.739-81.815-18.797-10.634-36.837-22.045-54.143-34.093q-1.466-1.02-2.926-2.047a1482 1482 0 0 0-16.057 30.88c-26.263 51.996-49.917 106.271-70.474 160.476-18.336 48.355-34.213 96.658-47.291 143.242"/><defs><filter id="au" filterUnits="userSpaceOnUse" x="2351.472" y="1755.968" width="559.643" height="171.64"><feColorMatrix values="1 0 0 0 0 0 1 0 0 0 0 0 1 0 0 0 0 0 1 0"/></filter></defs><mask maskUnits="userSpaceOnUse" x="2351.472" y="1755.968" width="559.643" height="171.64" id="aw"><g style="filter:url(#au)"><linearGradient id="av" gradientUnits="userSpaceOnUse" x1="1051.182" y1="4053.15" x2="1016.5" y2="4644.369" gradientTransform="translate(1601.476 -2575.556)"><stop offset="0" style="stop-color:#fff"/><stop offset="1" style="stop-color:#000"/></linearGradient><path style="fill:url(#av)" d="M2351.472 1755.968h559.645v171.64h-559.645z"/></g></mask><path style="mask:url(#aw);fill-rule:evenodd;clip-rule:evenodd;fill:#fce2a6" d="M2351.472 1927.608s286.059-180.109 559.644-3.066c-36.459-112.711-185.924-187.356-324.884-164.433-84.225 13.897-164.112 77.737-234.76 167.499"/><defs><path id="ax" d="m2187.99 2081.28-178.037 255.196c148.189 4.286 290.06-176.972 354.224-317.43-30.503-20.329-59.024-43.001-85.683-67.488z"/></defs><clipPath id="ay"><use xlink:href="#ax" style="overflow:visible"/></clipPath><linearGradient id="az" gradientUnits="userSpaceOnUse" x1="2257.246" y1="2167.138" x2="1949.091" y2="2075.027"><stop offset="0" style="stop-color:#008a80"/><stop offset="1" style="stop-color:#ebf855"/></linearGradient><path style="clip-path:url(#ay);fill:url(#az)" d="M2009.953 1951.558h354.223v389.204h-354.223z"/><defs><filter id="aA" filterUnits="userSpaceOnUse" x="2009.953" y="1951.558" width="295.393" height="384.918"><feColorMatrix values="1 0 0 0 0 0 1 0 0 0 0 0 1 0 0 0 0 0 1 0"/></filter></defs><mask maskUnits="userSpaceOnUse" x="2009.953" y="1951.558" width="295.393" height="384.918" id="aC"><g style="filter:url(#aA)"><linearGradient id="aB" gradientUnits="userSpaceOnUse" x1="969.746" y1="4525.939" x2="-325.817" y2="5049.325" gradientTransform="translate(1567.995 -2535.473)"><stop offset="0" style="stop-color:#fff"/><stop offset="1" style="stop-color:#000"/></linearGradient><path style="fill:url(#aB)" d="M2009.953 1951.558h295.393v384.918h-295.393z"/></g></mask><path style="mask:url(#aC);fill-rule:evenodd;clip-rule:evenodd;fill:#005b50" d="m2187.99 2081.28-178.037 255.196s221.294-138.867 295.393-361.414a744 744 0 0 1-26.852-23.504z"/><defs><path id="aD" d="m2037.536 2065.984-266.271 273.707c202.114 39.158 441.597-211.007 528.055-373.854-30.841-24.65-59.573-51.61-86.276-80.264z"/></defs><clipPath id="aE"><use xlink:href="#aD" style="overflow:visible"/></clipPath><linearGradient id="aF" gradientUnits="userSpaceOnUse" x1="2019.592" y1="2155.624" x2="1734.898" y2="2580.166"><stop offset="0" style="stop-color:#008a80"/><stop offset="1" style="stop-color:#ebf855"/></linearGradient><path style="clip-path:url(#aE);fill:url(#aF)" d="M1771.265 1885.573h528.055v493.276h-528.055z"/><defs><path id="aG" d="m1663.558 1892.83-512.989 217.325c294.547 197.144 887.148-117.988 1006.702-290.302-20.717-26.724-40.004-54.292-57.9-82.291l-27.956-17.522z"/></defs><clipPath id="aH"><use xlink:href="#aG" style="overflow:visible"/></clipPath><linearGradient id="aI" gradientUnits="userSpaceOnUse" x1="1744.475" y1="1961.435" x2="1093.889" y2="2336.711"><stop offset="0" style="stop-color:#008a80"/><stop offset="1" style="stop-color:#ebf855"/></linearGradient><path style="clip-path:url(#aH);fill:url(#aI)" d="M1150.568 1720.04H2157.27v587.259H1150.568z"/><defs><path id="aJ" d="m1635.094 1385.815-457.158-91.436c110.173 273.587 662.837 335.739 830.164 274.653-18.83-41.066-34.998-80.999-48.796-118.376z"/></defs><clipPath id="aK"><use xlink:href="#aJ" style="overflow:visible"/></clipPath><linearGradient id="aL" gradientUnits="userSpaceOnUse" x1="1889.985" y1="1638.517" x2="1256.536" y2="1262.527"><stop offset="0" style="stop-color:#008a80"/><stop offset="1" style="stop-color:#ebf855"/></linearGradient><path style="clip-path:url(#aK);fill:url(#aL)" d="M1177.936 1294.38H2008.1v335.739h-830.164z"/><defs><path id="aM" d="M2351.472 1927.608c-127.405-90.367-261.945-235.756-352.908-469.1l-484.622-96.924s185.974 168.868 381.239 226.156c0 0 93.204 322.535 350.848 503.88 107.021 75.326 242.418 126.291 411.291 119.659 21.727-41.385 38.495-86.826 48.808-137.293-.001 0-169.825-15.286-354.656-146.378"/></defs><clipPath id="aN"><use xlink:href="#aM" style="overflow:visible"/></clipPath><linearGradient id="aO" gradientUnits="userSpaceOnUse" x1="2322.47" y1="2105.003" x2="1927.1" y2="1518.272"><stop offset="0" style="stop-color:#00478f"/><stop offset="1" style="stop-color:#47eadf"/></linearGradient><path style="clip-path:url(#aN);fill:url(#aO)" d="M1513.941 1361.584h1192.186v856.326H1513.941z"/><defs><filter id="aP" filterUnits="userSpaceOnUse" x="1513.941" y="1361.584" width="1192.186" height="749.206"><feColorMatrix values="1 0 0 0 0 0 1 0 0 0 0 0 1 0 0 0 0 0 1 0"/></filter></defs><mask maskUnits="userSpaceOnUse" x="1513.941" y="1361.584" width="1192.186" height="749.206" id="aR"><g style="filter:url(#aP)"><linearGradient id="aQ" gradientUnits="userSpaceOnUse" x1="35.768" y1="3806.406" x2="963.807" y2="4621.524" gradientTransform="translate(1519.369 -2557.598)"><stop offset="0" style="stop-color:#fff"/><stop offset="1" style="stop-color:#000"/></linearGradient><path style="fill:url(#aQ)" d="M1513.941 1361.584h1192.186v749.206H1513.941z"/></g></mask><path style="mask:url(#aR);fill-rule:evenodd;clip-rule:evenodd;fill:#5ef9f6" d="M2351.472 1927.608c-127.405-90.367-261.945-235.756-352.908-469.1l-484.622-96.924s252.732 67.81 447.996 125.1c0 0 93.207 322.535 350.851 503.875 101.288 71.294 228 120.755 384.449 120.227a533 533 0 0 0 8.889-36.8s-169.824-15.286-354.655-146.378"/><defs><filter id="aS" filterUnits="userSpaceOnUse" x="1060.816" y="1533.864" width="842.769" height="115.823"><feColorMatrix values="1 0 0 0 0 0 1 0 0 0 0 0 1 0 0 0 0 0 1 0"/></filter></defs><mask maskUnits="userSpaceOnUse" x="1060.816" y="1533.864" width="842.769" height="115.823" id="aU"><g style="filter:url(#aS)"><linearGradient id="aT" gradientUnits="userSpaceOnUse" x1="510.444" y1="3991.479" x2="-519.394" y2="4407.146" gradientTransform="translate(1474.947 -2602.802)"><stop offset="0" style="stop-color:#fff"/><stop offset="1" style="stop-color:#000"/></linearGradient><path style="fill:url(#aT)" d="M1060.816 1533.864h842.769v115.824h-842.769z"/></g></mask><path style="mask:url(#aU);fill-rule:evenodd;clip-rule:evenodd;fill:#005b50" d="M1060.816 1533.864s401.784 194.399 842.769 79.494c-4.525-12.912-7.151-21.43-8.05-24.42-108.453 6.888-255.802-7.982-390.23-50.123z"/><defs><filter id="aV" filterUnits="userSpaceOnUse" x="1038.2" y="1702.757" width="925.334" height="129.682"><feColorMatrix values="1 0 0 0 0 0 1 0 0 0 0 0 1 0 0 0 0 0 1 0"/></filter></defs><mask maskUnits="userSpaceOnUse" x="1038.2" y="1702.757" width="925.334" height="129.682" id="aX"><g style="filter:url(#aV)"><linearGradient id="aW" gradientUnits="userSpaceOnUse" x1="842.093" y1="4023.659" x2="-453.471" y2="4547.046" gradientTransform="translate(1472.73 -2584.886)"><stop offset="0" style="stop-color:#fff"/><stop offset="1" style="stop-color:#000"/></linearGradient><path style="fill:url(#aW)" d="M1038.2 1702.757h925.334v129.682H1038.2z"/></g></mask><path style="mask:url(#aX);fill-rule:evenodd;clip-rule:evenodd;fill:#005b50" d="M1939.801 1702.757c-123.316 36.063-310.452 53.996-484.383 30.606l-417.218 76.384s553.233 79.066 925.334-57.98a1184 1184 0 0 1-23.733-49.01"/><defs><filter id="aY" filterUnits="userSpaceOnUse" x="1150.568" y="1806.024" width="865.604" height="304.131"><feColorMatrix values="1 0 0 0 0 0 1 0 0 0 0 0 1 0 0 0 0 0 1 0"/></filter></defs><mask maskUnits="userSpaceOnUse" x="1150.568" y="1806.024" width="865.604" height="304.131" id="ba"><g style="filter:url(#aY)"><linearGradient id="aZ" gradientUnits="userSpaceOnUse" x1="908.843" y1="4188.838" x2="-386.72" y2="4712.225" gradientTransform="translate(1483.746 -2557.66)"><stop offset="0" style="stop-color:#fff"/><stop offset="1" style="stop-color:#000"/></linearGradient><path style="fill:url(#aZ)" d="M1150.568 1806.022h865.605v304.134h-865.605z"/></g></mask><path style="mask:url(#ba);fill-rule:evenodd;clip-rule:evenodd;fill:#005b50" d="M1150.568 2110.156s507.095-37.671 865.604-266.402a1113 1113 0 0 1-22.972-37.729c-102.91 53.712-257.679 103.285-416.955 123.798z"/><defs><filter id="bb" filterUnits="userSpaceOnUse" x="1437.249" y="1912.89" width="645.833" height="382.742"><feColorMatrix values="1 0 0 0 0 0 1 0 0 0 0 0 1 0 0 0 0 0 1 0"/></filter></defs><mask maskUnits="userSpaceOnUse" x="1437.249" y="1912.89" width="645.833" height="382.742" id="bd"><g style="filter:url(#bb)"><linearGradient id="bc" gradientUnits="userSpaceOnUse" x1="956.286" y1="4357.73" x2="-339.275" y2="4881.115" gradientTransform="translate(1511.85 -2539.477)"><stop offset="0" style="stop-color:#fff"/><stop offset="1" style="stop-color:#000"/></linearGradient><path style="fill:url(#bc)" d="M1437.249 1912.89h645.833v382.742h-645.833z"/></g></mask><path style="mask:url(#bd);fill-rule:evenodd;clip-rule:evenodd;fill:#005b50" d="M1437.249 2295.632s329.888-32.243 645.833-358.55a953 953 0 0 1-18.925-24.191c-89.239 70.923-221.478 146.276-363.084 197.497z"/><defs><filter id="be" filterUnits="userSpaceOnUse" x="1771.265" y="2003.295" width="403.86" height="336.396"><feColorMatrix values="1 0 0 0 0 0 1 0 0 0 0 0 1 0 0 0 0 0 1 0"/></filter></defs><mask maskUnits="userSpaceOnUse" x="1771.265" y="2003.295" width="403.86" height="336.396" id="bg"><g style="filter:url(#be)"><linearGradient id="bf" gradientUnits="userSpaceOnUse" x1="976.842" y1="4485.127" x2="-318.721" y2="5008.615" gradientTransform="translate(1544.596 -2535.158)"><stop offset="0" style="stop-color:#fff"/><stop offset="1" style="stop-color:#000"/></linearGradient><path style="fill:url(#bf)" d="M1771.265 2003.295h403.86v336.396h-403.86z"/></g></mask><path style="mask:url(#bg);fill-rule:evenodd;clip-rule:evenodd;fill:#005b50" d="M1771.265 2339.691s238.355-114.21 403.86-304.863a808 808 0 0 1-32.947-31.533c-58.573 62.144-136.166 127.944-221.812 183.13z"/></svg>